<svg xmlns="http://www.w3.org/2000/svg" width="268" height="67" fill="none" viewBox="0 0 268 67">
  <path stroke="#43459A" d="M58.131 43.966a10 10 0 0 1-4.981 8.65L34.584 63.388a10 10 0 0 1-10.037 0L5.98 52.616A10 10 0 0 1 1 43.966V22.334a10 10 0 0 1 4.981-8.65L24.547 2.913a10 10 0 0 1 10.037 0L53.15 13.685a10 10 0 0 1 4.981 8.65v21.631Z"/>
  <rect width="21.649" height="21.649" fill="url(#a)" rx="4" transform="matrix(.86603 -.5 0 1 11.136 22.804)"/>
  <rect width="13.683" height="13.683" fill="url(#b)" rx="2" transform="matrix(.86603 -.5 0 1 22.368 29.25)"/>
  <rect width="21.649" height="21.649" fill="url(#c)" rx="4" transform="matrix(.86603 -.5 0 1 29.588 33.233)"/>
  <path fill="#2A2A7A" d="M94.755 41.964c-1.62.394-2.89.591-3.81.591-2.32 0-3.48-1.003-3.48-3.01v-9.357h7.345v-4.032h-7.344V20.24h-5.302v5.915H78.63v4.032h3.534v9.464c0 2.509.57 4.32 1.712 5.43 1.178 1.112 3.148 1.667 5.909 1.667.478 0 1.16-.071 2.043-.215l2.927-.699v-3.871Zm23.254.753c-1.436.358-3.553.537-6.351.537-4.454 0-6.829-1.559-7.123-4.678h14.413v-1.99c0-3.369-.866-6.003-2.596-7.903-1.73-1.9-4.178-2.85-7.344-2.85-1.768 0-3.387.448-4.86 1.344-1.473.86-2.669 2.097-3.589 3.71-.92 1.65-1.381 3.55-1.381 5.7 0 3.262 1.049 5.879 3.148 7.85 2.135 1.936 5.006 2.904 8.614 2.904 2.725 0 5.081-.269 7.069-.807v-3.817Zm-8.891-12.851c1.436 0 2.559.448 3.369 1.344.809.896 1.214 2.15 1.214 3.764h-9.056c.074-1.506.534-2.724 1.381-3.656.846-.968 1.877-1.452 3.092-1.452Zm14.599-3.71v20.647h5.246v-15.27c1.215-.43 2.153-.717 2.816-.86.7-.18 1.307-.27 1.822-.27 1.142 0 1.988.377 2.541 1.13.589.716.883 1.738.883 3.064v12.206h5.302V35.458c0-1.542-.129-2.796-.387-3.764 1.141-.466 2.08-.789 2.816-.968a7.493 7.493 0 0 1 2.099-.323c1.104 0 1.933.377 2.485 1.13.589.716.883 1.738.883 3.064v12.206h5.246v-11.56c0-3.19-.552-5.52-1.656-6.99-1.105-1.47-2.964-2.205-5.578-2.205-2.282 0-4.859.699-7.731 2.097-1.252-1.398-3.074-2.097-5.467-2.097-1.656 0-3.497.412-5.522 1.237l-.773.322-.608.215-.11-1.666h-4.307Zm53.67.699c-1.657-.681-3.7-1.022-6.13-1.022-3.423 0-6.111.896-8.062 2.688-1.951 1.793-2.927 4.302-2.927 7.528s.994 5.825 2.982 7.797c2.025 1.971 4.694 2.957 8.007 2.957 2.209 0 4.253-.358 6.13-1.075V41.64c-1.362.43-2.374.717-3.037.86-.626.144-1.362.216-2.209.216-1.951 0-3.516-.61-4.694-1.828-1.141-1.255-1.712-2.868-1.712-4.84 0-2.043.534-3.584 1.602-4.624 1.104-1.04 2.706-1.56 4.804-1.56.847 0 1.583.072 2.209.216.663.143 1.675.43 3.037.86v-4.086Zm4.765 19.948h5.246v-15.7c1.215-.395 2.374-.592 3.479-.592 1.656 0 3.092.323 4.307.968v-5.055c-.92-.179-1.712-.268-2.375-.268h-.497c-2.687 0-5.062.43-7.123 1.29-2.062.824-3.074 2.169-3.037 4.033v15.324Zm-.111-20.432h2.927a6.49 6.49 0 0 0-1.878.914c-.515.394-.846.788-.994 1.183l-.055-2.097Zm27.003 20.593L204.24 57.88h5.908l13.53-31.724h-5.522l-6.24 15.862-6.351-15.862h-6.019l9.498 20.808Zm18.33-20.808V57.88h5.301V45.674c1.031.394 1.86.681 2.485.86.663.144 1.381.215 2.154.215 3.35 0 5.982-.878 7.897-2.634 1.951-1.793 2.927-4.212 2.927-7.26 0-2.365-.461-4.355-1.381-5.968-.92-1.649-2.227-2.867-3.921-3.656-1.583-.717-3.184-1.075-4.804-1.075-2.246 0-4.381.555-6.406 1.666l.055-1.666h-4.307Zm9.167 4.086c2.135 0 3.681.502 4.639 1.506.994 1.003 1.491 2.616 1.491 4.839 0 2.115-.534 3.674-1.602 4.678-1.031.968-2.595 1.452-4.694 1.452-1.399 0-2.614-.34-3.644-1.022v-10.7c1.325-.502 2.595-.753 3.81-.753Zm31.404 11.722c-1.62.394-2.89.591-3.81.591-2.32 0-3.479-1.003-3.479-3.01v-9.357H268v-4.032h-7.344V20.24h-5.302v5.915h-3.534v4.032h3.534v9.464c0 2.509.571 4.32 1.712 5.43 1.178 1.112 3.148 1.667 5.909 1.667.478 0 1.159-.071 2.043-.215l2.927-.699v-3.871Z"/>
  <defs>
    <linearGradient id="a" x1="10.825" x2="10.825" y1="0" y2="21.649" gradientUnits="userSpaceOnUse">
      <stop stop-color="#1C1D40"/>
      <stop offset="1" stop-color="#43459A"/>
    </linearGradient>
    <linearGradient id="b" x1="6.841" x2="6.841" y1="0" y2="13.683" gradientUnits="userSpaceOnUse">
      <stop stop-color="#3B3D8E"/>
      <stop offset="1" stop-color="#7073F7" stop-opacity=".78"/>
    </linearGradient>
    <linearGradient id="c" x1="10.825" x2="10.825" y1="0" y2="21.649" gradientUnits="userSpaceOnUse">
      <stop stop-color="#1C1D40"/>
      <stop offset="1" stop-color="#43459A"/>
    </linearGradient>
  </defs>
</svg>
